<?xml version="1.0" encoding="UTF-8" standalone="no"?>
<svg width="105px" height="39px" viewBox="0 0 105 39" version="1.1" xmlns="http://www.w3.org/2000/svg" xmlns:xlink="http://www.w3.org/1999/xlink">
    <!-- Generator: Sketch 3.8.3 (29802) - http://www.bohemiancoding.com/sketch -->
    <title>ym-logo</title>
    <desc>Created with Sketch.</desc>
    <defs></defs>
    <g id="ym-logo" stroke="none" stroke-width="1" fill="none" fill-rule="evenodd">
        <polygon id="Shape" fill="#FFCF00" points="104.5 38.7 8.6 38.7 1.42108547e-14 29.3 1.42108547e-14 0 104.5 0"></polygon>
        <g id="Group" transform="translate(18.200000, 10.600000)" fill="#030102">
            <g transform="translate(34.000000, 5.000000)" id="Shape">
                <path d="M2.2,1.6 L2.2,1.8 C2.2,3.2 2.1,4 2,4.5 C1.9,5 1.7,5.4 1.5,5.9 L3.9,5.9 L3.9,1.6 L2.2,1.6 L2.2,1.6 Z M0.7,5.9 C0.8,5.7 1.1,5.1 1.3,4.4 C1.5,3.7 1.5,2.9 1.5,1.8 L1.5,0.9 L4.7,0.9 L4.7,5.9 L5.4,5.9 L5.4,7.8 L4.7,7.8 L4.7,6.6 L0.9,6.6 L0.9,7.8 L0.2,7.8 L0.2,5.9 L0.7,5.9 L0.7,5.9 Z"></path>
                <path d="M8.6,4.3 C8.6,4.1 8.5,3.8 8.3,3.6 C8.1,3.4 7.9,3.4 7.7,3.4 C7.5,3.4 7.3,3.4 7.1,3.6 C6.9,3.8 6.8,4 6.7,4.3 L8.6,4.3 L8.6,4.3 Z M9.3,6.1 C9,6.4 8.6,6.7 7.8,6.7 C7.3,6.7 6.9,6.6 6.5,6.2 C6.2,5.9 6,5.3 6,4.8 C6,4.3 6.2,3.7 6.5,3.3 C6.8,3 7.2,2.8 7.7,2.8 C8.1,2.8 8.5,2.9 8.8,3.2 C9.3,3.6 9.4,4.4 9.4,4.9 L6.7,4.9 C6.7,5.3 6.8,5.6 7.1,5.9 C7.3,6.1 7.6,6.2 7.8,6.2 C8,6.2 8.4,6.2 8.8,5.8 L9.3,6.1 L9.3,6.1 Z"></path>
            </g>
            <polygon id="Shape" points="45 11.6 44.4 11.6 44.4 7.8 45 7.8 45 9.3 46.8 9.3 46.8 7.8 47.5 7.8 47.5 11.6 46.8 11.6 46.8 9.8 45 9.8"></polygon>
            <path d="M50.1,11 C50.3,11 50.6,11 50.7,10.8 C50.8,10.7 50.9,10.6 50.9,10.3 C50.9,10 50.8,9.9 50.7,9.8 C50.5,9.7 50.2,9.6 50,9.6 L49.4,9.6 L49.4,10.9 L50.1,10.9 L50.1,11 Z M48.8,7.8 L49.5,7.8 L49.5,9.1 L50.2,9.1 C50.7,9.1 51.1,9.2 51.4,9.5 C51.7,9.8 51.7,10.1 51.7,10.4 C51.7,10.9 51.5,11.1 51.4,11.3 C51.1,11.6 50.6,11.7 50.1,11.7 L48.9,11.7 L48.9,7.8 L48.8,7.8 Z" id="Shape"></path>
            <polygon id="Shape" points="53.2 11.6 52.6 11.6 52.6 7.8 55 7.8 55 8.4 53.2 8.4"></polygon>
            <polygon id="Shape" points="58.3 8.2 58.3 7.8 58.9 7.8 58.9 11.6 58.3 11.6 58.3 9 56.5 11.2 56.5 11.6 55.8 11.6 55.8 7.8 56.5 7.8 56.5 10.4"></polygon>
            <g transform="translate(0.000000, 4.000000)" id="Shape">
                <path d="M4.7,0.2 L3.4,0.2 C2.1,0.2 1.1,1.2 1.1,3 C1.1,4.1 1.6,4.9 2.5,5.3 L0.8,8.4 C0.7,8.5 0.8,8.6 0.9,8.6 L1.7,8.6 C1.8,8.6 1.8,8.6 1.8,8.5 L3.4,5.4 L4,5.4 L4,8.5 C4,8.5 4,8.6 4.1,8.6 L4.8,8.6 C4.9,8.6 4.9,8.6 4.9,8.5 L4.9,0.2 L4.7,0.2 L4.7,0.2 Z M4,4.8 L3.5,4.8 C2.8,4.8 2,4.3 2,2.9 C2,1.5 2.7,0.9 3.4,0.9 L4,0.9 L4,4.8 L4,4.8 Z"></path>
                <path d="M9,3 L8.3,3 C8.2,3 8.2,3 8.2,3.1 L8.2,5.3 L6.9,5.3 L6.9,3.1 C6.9,3 6.9,3 6.8,3 L6.1,3 C6,3 6,3 6,3.1 L6,8.6 C6,8.7 6,8.7 6.1,8.7 L6.8,8.7 C6.8,8.7 6.9,8.7 6.9,8.6 L6.9,6 L8.2,6 L8.2,8.6 C8.2,8.7 8.2,8.7 8.3,8.7 L9,8.7 C9.1,8.7 9.1,8.7 9.1,8.6 L9,3 L9,3"></path>
                <path d="M24.9,8.3 L24.8,7.9 C24.8,7.9 24.8,7.9 24.7,7.9 C24.6,7.9 24.3,8 23.9,8 C23,8 22.6,7.2 22.6,5.9 C22.6,4.7 22.9,3.6 23.5,3.6 C23.7,3.6 23.8,3.6 24.2,3.9 L24.3,3.9 C24.3,3.9 24.4,3.9 24.4,3.8 L24.7,3.3 L24.7,3.2 C24.7,3.2 24.7,3.1 24.6,3.1 C24.1,2.9 23.8,2.8 23.6,2.8 C22.5,2.8 21.7,4.1 21.7,6 C21.7,7.7 22.5,8.7 23.6,8.7 C24.1,8.7 24.6,8.5 24.8,8.3 C24.9,8.4 24.9,8.4 24.9,8.3"></path>
                <path d="M20,5.6 L21.4,3.1 L21.4,3 L20.7,3 C20.5,3 20.4,3.1 20.4,3.2 L19.4,5.3 C19.3,5.4 19.3,5.5 19.2,5.5 L19.2,3 C19.2,3 19.2,2.9 19.1,2.9 L18.4,2.9 C18.4,2.9 18.3,2.9 18.3,3 L18.3,8.5 C18.3,8.5 18.3,8.6 18.4,8.6 L19.1,8.6 C19.1,8.6 19.2,8.6 19.2,8.5 L19.2,5.7 L19.3,5.8 L20.6,8.4 C20.7,8.5 20.8,8.6 20.9,8.6 L21.6,8.6 C21.6,8.6 21.7,8.6 21.6,8.5 L20,5.6 L20,5.6 Z"></path>
                <path d="M13.5,8 L13.4,8 C13.2,8 13.2,7.9 13.2,7.8 L13.2,3.1 C13.2,3 13.2,3 13.1,3 L10.8,3 C10.7,3 10.7,3 10.7,3.1 L10.7,3.5 C10.7,4.9 10.6,6.6 9.9,8 L9.7,8 C9.6,8 9.6,8 9.6,8.1 L9.6,9.7 C9.6,9.8 9.6,9.8 9.7,9.8 L10.2,9.8 C10.3,9.8 10.4,9.7 10.4,9.6 L10.4,8.7 L12.8,8.7 L12.8,9.7 C12.8,9.7 12.8,9.8 12.9,9.8 L13.5,9.8 C13.6,9.8 13.6,9.7 13.6,9.6 L13.5,8 L13.5,8 L13.5,8 Z M12.3,8 L10.7,8 C11.3,7 11.5,5.9 11.6,4.6 L11.6,3.8 L12.3,3.8 L12.3,8 L12.3,8 Z"></path>
                <path d="M15.8,2.9 C14.6,2.9 14,4.4 14,6.1 C14,7.8 14.8,8.8 15.9,8.8 C16.5,8.8 16.9,8.6 17.2,8.4 C17.2,8.4 17.3,8.3 17.2,8.3 L17.1,7.9 C17.1,7.9 17.1,7.8 17,7.8 C17,7.8 16.6,7.9 16.2,7.9 C15.3,7.9 14.9,7.1 14.9,6.2 L14.9,6 C14.9,6 15.3,6.1 15.6,6.1 L17.2,6.1 L17.2,5.6 C17.4,3.8 16.7,2.9 15.8,2.9 L15.8,2.9 Z M15.7,5.3 L15,5.3 L15,4.9 C15.1,3.9 15.3,3.5 15.7,3.5 C16.1,3.5 16.3,4 16.3,4.9 L16.3,5.3 L15.7,5.3 L15.7,5.3 Z"></path>
            </g>
            <path d="M30.5,1.7 L61.4,1.7 L65.5,8.7 L61.4,15.7 L30.5,15.7 L30.5,1.7 L30.5,1.7 Z M28.9,0.3 L28.9,17.2 L62.3,17.2 L67.2,8.7 L62.3,0.2 L28.9,0.2 L28.9,0.3 Z" id="Shape"></path>
        </g>
    </g>
</svg>